<svg version="1.1" xmlns="http://www.w3.org/2000/svg" xmlns:xlink="http://www.w3.org/1999/xlink" width="1123" height="828"><defs/><g><text fill="#eeeeee" stroke="none" font-family="Arial" font-size="24px" font-style="normal" font-weight="normal" text-decoration="none" x="0" y="0">UNREGISTERED</text><text fill="#eeeeee" stroke="none" font-family="Arial" font-size="24px" font-style="normal" font-weight="normal" text-decoration="none" x="0" y="30">UNREGISTERED</text><text fill="#eeeeee" stroke="none" font-family="Arial" font-size="24px" font-style="normal" font-weight="normal" text-decoration="none" x="0" y="60">UNREGISTERED</text><text fill="#eeeeee" stroke="none" font-family="Arial" font-size="24px" font-style="normal" font-weight="normal" text-decoration="none" x="0" y="90">UNREGISTERED</text><text fill="#eeeeee" stroke="none" font-family="Arial" font-size="24px" font-style="normal" font-weight="normal" text-decoration="none" x="0" y="120">UNREGISTERED</text><text fill="#eeeeee" stroke="none" font-family="Arial" font-size="24px" font-style="normal" font-weight="normal" text-decoration="none" x="0" y="150">UNREGISTERED</text><text fill="#eeeeee" stroke="none" font-family="Arial" font-size="24px" font-style="normal" font-weight="normal" text-decoration="none" x="0" y="180">UNREGISTERED</text><text fill="#eeeeee" stroke="none" font-family="Arial" font-size="24px" font-style="normal" font-weight="normal" text-decoration="none" x="0" y="210">UNREGISTERED</text><text fill="#eeeeee" stroke="none" font-family="Arial" font-size="24px" font-style="normal" font-weight="normal" text-decoration="none" x="0" y="240">UNREGISTERED</text><text fill="#eeeeee" stroke="none" font-family="Arial" font-size="24px" font-style="normal" font-weight="normal" text-decoration="none" x="0" y="270">UNREGISTERED</text><text fill="#eeeeee" stroke="none" font-family="Arial" font-size="24px" font-style="normal" font-weight="normal" text-decoration="none" x="0" y="300">UNREGISTERED</text><text fill="#eeeeee" stroke="none" font-family="Arial" font-size="24px" font-style="normal" font-weight="normal" text-decoration="none" x="0" y="330">UNREGISTERED</text><text fill="#eeeeee" stroke="none" font-family="Arial" font-size="24px" font-style="normal" font-weight="normal" text-decoration="none" x="0" y="360">UNREGISTERED</text><text fill="#eeeeee" stroke="none" font-family="Arial" font-size="24px" font-style="normal" font-weight="normal" text-decoration="none" x="0" y="390">UNREGISTERED</text><text fill="#eeeeee" stroke="none" font-family="Arial" font-size="24px" font-style="normal" font-weight="normal" text-decoration="none" x="0" y="420">UNREGISTERED</text><text fill="#eeeeee" stroke="none" font-family="Arial" font-size="24px" font-style="normal" font-weight="normal" text-decoration="none" x="0" y="450">UNREGISTERED</text><text fill="#eeeeee" stroke="none" font-family="Arial" font-size="24px" font-style="normal" font-weight="normal" text-decoration="none" x="0" y="480">UNREGISTERED</text><text fill="#eeeeee" stroke="none" font-family="Arial" font-size="24px" font-style="normal" font-weight="normal" text-decoration="none" x="0" y="510">UNREGISTERED</text><text fill="#eeeeee" stroke="none" font-family="Arial" font-size="24px" font-style="normal" font-weight="normal" text-decoration="none" x="0" y="540">UNREGISTERED</text><text fill="#eeeeee" stroke="none" font-family="Arial" font-size="24px" font-style="normal" font-weight="normal" text-decoration="none" x="0" y="570">UNREGISTERED</text><text fill="#eeeeee" stroke="none" font-family="Arial" font-size="24px" font-style="normal" font-weight="normal" text-decoration="none" x="0" y="600">UNREGISTERED</text><text fill="#eeeeee" stroke="none" font-family="Arial" font-size="24px" font-style="normal" font-weight="normal" text-decoration="none" x="0" y="630">UNREGISTERED</text><text fill="#eeeeee" stroke="none" font-family="Arial" font-size="24px" font-style="normal" font-weight="normal" text-decoration="none" x="0" y="660">UNREGISTERED</text><text fill="#eeeeee" stroke="none" font-family="Arial" font-size="24px" font-style="normal" font-weight="normal" text-decoration="none" x="0" y="690">UNREGISTERED</text><text fill="#eeeeee" stroke="none" font-family="Arial" font-size="24px" font-style="normal" font-weight="normal" text-decoration="none" x="0" y="720">UNREGISTERED</text><text fill="#eeeeee" stroke="none" font-family="Arial" font-size="24px" font-style="normal" font-weight="normal" text-decoration="none" x="0" y="750">UNREGISTERED</text><text fill="#eeeeee" stroke="none" font-family="Arial" font-size="24px" font-style="normal" font-weight="normal" text-decoration="none" x="0" y="780">UNREGISTERED</text><text fill="#eeeeee" stroke="none" font-family="Arial" font-size="24px" font-style="normal" font-weight="normal" text-decoration="none" x="0" y="810">UNREGISTERED</text><text fill="#eeeeee" stroke="none" font-family="Arial" font-size="24px" font-style="normal" font-weight="normal" text-decoration="none" x="200" y="0">UNREGISTERED</text><text fill="#eeeeee" stroke="none" font-family="Arial" font-size="24px" font-style="normal" font-weight="normal" text-decoration="none" x="200" y="30">UNREGISTERED</text><text fill="#eeeeee" stroke="none" font-family="Arial" font-size="24px" font-style="normal" font-weight="normal" text-decoration="none" x="200" y="60">UNREGISTERED</text><text fill="#eeeeee" stroke="none" font-family="Arial" font-size="24px" font-style="normal" font-weight="normal" text-decoration="none" x="200" y="90">UNREGISTERED</text><text fill="#eeeeee" stroke="none" font-family="Arial" font-size="24px" font-style="normal" font-weight="normal" text-decoration="none" x="200" y="120">UNREGISTERED</text><text fill="#eeeeee" stroke="none" font-family="Arial" font-size="24px" font-style="normal" font-weight="normal" text-decoration="none" x="200" y="150">UNREGISTERED</text><text fill="#eeeeee" stroke="none" font-family="Arial" font-size="24px" font-style="normal" font-weight="normal" text-decoration="none" x="200" y="180">UNREGISTERED</text><text fill="#eeeeee" stroke="none" font-family="Arial" font-size="24px" font-style="normal" font-weight="normal" text-decoration="none" x="200" y="210">UNREGISTERED</text><text fill="#eeeeee" stroke="none" font-family="Arial" font-size="24px" font-style="normal" font-weight="normal" text-decoration="none" x="200" y="240">UNREGISTERED</text><text fill="#eeeeee" stroke="none" font-family="Arial" font-size="24px" font-style="normal" font-weight="normal" text-decoration="none" x="200" y="270">UNREGISTERED</text><text fill="#eeeeee" stroke="none" font-family="Arial" font-size="24px" font-style="normal" font-weight="normal" text-decoration="none" x="200" y="300">UNREGISTERED</text><text fill="#eeeeee" stroke="none" font-family="Arial" font-size="24px" font-style="normal" font-weight="normal" text-decoration="none" x="200" y="330">UNREGISTERED</text><text fill="#eeeeee" stroke="none" font-family="Arial" font-size="24px" font-style="normal" font-weight="normal" text-decoration="none" x="200" y="360">UNREGISTERED</text><text fill="#eeeeee" stroke="none" font-family="Arial" font-size="24px" font-style="normal" font-weight="normal" text-decoration="none" x="200" y="390">UNREGISTERED</text><text fill="#eeeeee" stroke="none" font-family="Arial" font-size="24px" font-style="normal" font-weight="normal" text-decoration="none" x="200" y="420">UNREGISTERED</text><text fill="#eeeeee" stroke="none" font-family="Arial" font-size="24px" font-style="normal" font-weight="normal" text-decoration="none" x="200" y="450">UNREGISTERED</text><text fill="#eeeeee" stroke="none" font-family="Arial" font-size="24px" font-style="normal" font-weight="normal" text-decoration="none" x="200" y="480">UNREGISTERED</text><text fill="#eeeeee" stroke="none" font-family="Arial" font-size="24px" font-style="normal" font-weight="normal" text-decoration="none" x="200" y="510">UNREGISTERED</text><text fill="#eeeeee" stroke="none" font-family="Arial" font-size="24px" font-style="normal" font-weight="normal" text-decoration="none" x="200" y="540">UNREGISTERED</text><text fill="#eeeeee" stroke="none" font-family="Arial" font-size="24px" font-style="normal" font-weight="normal" text-decoration="none" x="200" y="570">UNREGISTERED</text><text fill="#eeeeee" stroke="none" font-family="Arial" font-size="24px" font-style="normal" font-weight="normal" text-decoration="none" x="200" y="600">UNREGISTERED</text><text fill="#eeeeee" stroke="none" font-family="Arial" font-size="24px" font-style="normal" font-weight="normal" text-decoration="none" x="200" y="630">UNREGISTERED</text><text fill="#eeeeee" stroke="none" font-family="Arial" font-size="24px" font-style="normal" font-weight="normal" text-decoration="none" x="200" y="660">UNREGISTERED</text><text fill="#eeeeee" stroke="none" font-family="Arial" font-size="24px" font-style="normal" font-weight="normal" text-decoration="none" x="200" y="690">UNREGISTERED</text><text fill="#eeeeee" stroke="none" font-family="Arial" font-size="24px" font-style="normal" font-weight="normal" text-decoration="none" x="200" y="720">UNREGISTERED</text><text fill="#eeeeee" stroke="none" font-family="Arial" font-size="24px" font-style="normal" font-weight="normal" text-decoration="none" x="200" y="750">UNREGISTERED</text><text fill="#eeeeee" stroke="none" font-family="Arial" font-size="24px" font-style="normal" font-weight="normal" text-decoration="none" x="200" y="780">UNREGISTERED</text><text fill="#eeeeee" stroke="none" font-family="Arial" font-size="24px" font-style="normal" font-weight="normal" text-decoration="none" x="200" y="810">UNREGISTERED</text><text fill="#eeeeee" stroke="none" font-family="Arial" font-size="24px" font-style="normal" font-weight="normal" text-decoration="none" x="400" y="0">UNREGISTERED</text><text fill="#eeeeee" stroke="none" font-family="Arial" font-size="24px" font-style="normal" font-weight="normal" text-decoration="none" x="400" y="30">UNREGISTERED</text><text fill="#eeeeee" stroke="none" font-family="Arial" font-size="24px" font-style="normal" font-weight="normal" text-decoration="none" x="400" y="60">UNREGISTERED</text><text fill="#eeeeee" stroke="none" font-family="Arial" font-size="24px" font-style="normal" font-weight="normal" text-decoration="none" x="400" y="90">UNREGISTERED</text><text fill="#eeeeee" stroke="none" font-family="Arial" font-size="24px" font-style="normal" font-weight="normal" text-decoration="none" x="400" y="120">UNREGISTERED</text><text fill="#eeeeee" stroke="none" font-family="Arial" font-size="24px" font-style="normal" font-weight="normal" text-decoration="none" x="400" y="150">UNREGISTERED</text><text fill="#eeeeee" stroke="none" font-family="Arial" font-size="24px" font-style="normal" font-weight="normal" text-decoration="none" x="400" y="180">UNREGISTERED</text><text fill="#eeeeee" stroke="none" font-family="Arial" font-size="24px" font-style="normal" font-weight="normal" text-decoration="none" x="400" y="210">UNREGISTERED</text><text fill="#eeeeee" stroke="none" font-family="Arial" font-size="24px" font-style="normal" font-weight="normal" text-decoration="none" x="400" y="240">UNREGISTERED</text><text fill="#eeeeee" stroke="none" font-family="Arial" font-size="24px" font-style="normal" font-weight="normal" text-decoration="none" x="400" y="270">UNREGISTERED</text><text fill="#eeeeee" stroke="none" font-family="Arial" font-size="24px" font-style="normal" font-weight="normal" text-decoration="none" x="400" y="300">UNREGISTERED</text><text fill="#eeeeee" stroke="none" font-family="Arial" font-size="24px" font-style="normal" font-weight="normal" text-decoration="none" x="400" y="330">UNREGISTERED</text><text fill="#eeeeee" stroke="none" font-family="Arial" font-size="24px" font-style="normal" font-weight="normal" text-decoration="none" x="400" y="360">UNREGISTERED</text><text fill="#eeeeee" stroke="none" font-family="Arial" font-size="24px" font-style="normal" font-weight="normal" text-decoration="none" x="400" y="390">UNREGISTERED</text><text fill="#eeeeee" stroke="none" font-family="Arial" font-size="24px" font-style="normal" font-weight="normal" text-decoration="none" x="400" y="420">UNREGISTERED</text><text fill="#eeeeee" stroke="none" font-family="Arial" font-size="24px" font-style="normal" font-weight="normal" text-decoration="none" x="400" y="450">UNREGISTERED</text><text fill="#eeeeee" stroke="none" font-family="Arial" font-size="24px" font-style="normal" font-weight="normal" text-decoration="none" x="400" y="480">UNREGISTERED</text><text fill="#eeeeee" stroke="none" font-family="Arial" font-size="24px" font-style="normal" font-weight="normal" text-decoration="none" x="400" y="510">UNREGISTERED</text><text fill="#eeeeee" stroke="none" font-family="Arial" font-size="24px" font-style="normal" font-weight="normal" text-decoration="none" x="400" y="540">UNREGISTERED</text><text fill="#eeeeee" stroke="none" font-family="Arial" font-size="24px" font-style="normal" font-weight="normal" text-decoration="none" x="400" y="570">UNREGISTERED</text><text fill="#eeeeee" stroke="none" font-family="Arial" font-size="24px" font-style="normal" font-weight="normal" text-decoration="none" x="400" y="600">UNREGISTERED</text><text fill="#eeeeee" stroke="none" font-family="Arial" font-size="24px" font-style="normal" font-weight="normal" text-decoration="none" x="400" y="630">UNREGISTERED</text><text fill="#eeeeee" stroke="none" font-family="Arial" font-size="24px" font-style="normal" font-weight="normal" text-decoration="none" x="400" y="660">UNREGISTERED</text><text fill="#eeeeee" stroke="none" font-family="Arial" font-size="24px" font-style="normal" font-weight="normal" text-decoration="none" x="400" y="690">UNREGISTERED</text><text fill="#eeeeee" stroke="none" font-family="Arial" font-size="24px" font-style="normal" font-weight="normal" text-decoration="none" x="400" y="720">UNREGISTERED</text><text fill="#eeeeee" stroke="none" font-family="Arial" font-size="24px" font-style="normal" font-weight="normal" text-decoration="none" x="400" y="750">UNREGISTERED</text><text fill="#eeeeee" stroke="none" font-family="Arial" font-size="24px" font-style="normal" font-weight="normal" text-decoration="none" x="400" y="780">UNREGISTERED</text><text fill="#eeeeee" stroke="none" font-family="Arial" font-size="24px" font-style="normal" font-weight="normal" text-decoration="none" x="400" y="810">UNREGISTERED</text><text fill="#eeeeee" stroke="none" font-family="Arial" font-size="24px" font-style="normal" font-weight="normal" text-decoration="none" x="600" y="0">UNREGISTERED</text><text fill="#eeeeee" stroke="none" font-family="Arial" font-size="24px" font-style="normal" font-weight="normal" text-decoration="none" x="600" y="30">UNREGISTERED</text><text fill="#eeeeee" stroke="none" font-family="Arial" font-size="24px" font-style="normal" font-weight="normal" text-decoration="none" x="600" y="60">UNREGISTERED</text><text fill="#eeeeee" stroke="none" font-family="Arial" font-size="24px" font-style="normal" font-weight="normal" text-decoration="none" x="600" y="90">UNREGISTERED</text><text fill="#eeeeee" stroke="none" font-family="Arial" font-size="24px" font-style="normal" font-weight="normal" text-decoration="none" x="600" y="120">UNREGISTERED</text><text fill="#eeeeee" stroke="none" font-family="Arial" font-size="24px" font-style="normal" font-weight="normal" text-decoration="none" x="600" y="150">UNREGISTERED</text><text fill="#eeeeee" stroke="none" font-family="Arial" font-size="24px" font-style="normal" font-weight="normal" text-decoration="none" x="600" y="180">UNREGISTERED</text><text fill="#eeeeee" stroke="none" font-family="Arial" font-size="24px" font-style="normal" font-weight="normal" text-decoration="none" x="600" y="210">UNREGISTERED</text><text fill="#eeeeee" stroke="none" font-family="Arial" font-size="24px" font-style="normal" font-weight="normal" text-decoration="none" x="600" y="240">UNREGISTERED</text><text fill="#eeeeee" stroke="none" font-family="Arial" font-size="24px" font-style="normal" font-weight="normal" text-decoration="none" x="600" y="270">UNREGISTERED</text><text fill="#eeeeee" stroke="none" font-family="Arial" font-size="24px" font-style="normal" font-weight="normal" text-decoration="none" x="600" y="300">UNREGISTERED</text><text fill="#eeeeee" stroke="none" font-family="Arial" font-size="24px" font-style="normal" font-weight="normal" text-decoration="none" x="600" y="330">UNREGISTERED</text><text fill="#eeeeee" stroke="none" font-family="Arial" font-size="24px" font-style="normal" font-weight="normal" text-decoration="none" x="600" y="360">UNREGISTERED</text><text fill="#eeeeee" stroke="none" font-family="Arial" font-size="24px" font-style="normal" font-weight="normal" text-decoration="none" x="600" y="390">UNREGISTERED</text><text fill="#eeeeee" stroke="none" font-family="Arial" font-size="24px" font-style="normal" font-weight="normal" text-decoration="none" x="600" y="420">UNREGISTERED</text><text fill="#eeeeee" stroke="none" font-family="Arial" font-size="24px" font-style="normal" font-weight="normal" text-decoration="none" x="600" y="450">UNREGISTERED</text><text fill="#eeeeee" stroke="none" font-family="Arial" font-size="24px" font-style="normal" font-weight="normal" text-decoration="none" x="600" y="480">UNREGISTERED</text><text fill="#eeeeee" stroke="none" font-family="Arial" font-size="24px" font-style="normal" font-weight="normal" text-decoration="none" x="600" y="510">UNREGISTERED</text><text fill="#eeeeee" stroke="none" font-family="Arial" font-size="24px" font-style="normal" font-weight="normal" text-decoration="none" x="600" y="540">UNREGISTERED</text><text fill="#eeeeee" stroke="none" font-family="Arial" font-size="24px" font-style="normal" font-weight="normal" text-decoration="none" x="600" y="570">UNREGISTERED</text><text fill="#eeeeee" stroke="none" font-family="Arial" font-size="24px" font-style="normal" font-weight="normal" text-decoration="none" x="600" y="600">UNREGISTERED</text><text fill="#eeeeee" stroke="none" font-family="Arial" font-size="24px" font-style="normal" font-weight="normal" text-decoration="none" x="600" y="630">UNREGISTERED</text><text fill="#eeeeee" stroke="none" font-family="Arial" font-size="24px" font-style="normal" font-weight="normal" text-decoration="none" x="600" y="660">UNREGISTERED</text><text fill="#eeeeee" stroke="none" font-family="Arial" font-size="24px" font-style="normal" font-weight="normal" text-decoration="none" x="600" y="690">UNREGISTERED</text><text fill="#eeeeee" stroke="none" font-family="Arial" font-size="24px" font-style="normal" font-weight="normal" text-decoration="none" x="600" y="720">UNREGISTERED</text><text fill="#eeeeee" stroke="none" font-family="Arial" font-size="24px" font-style="normal" font-weight="normal" text-decoration="none" x="600" y="750">UNREGISTERED</text><text fill="#eeeeee" stroke="none" font-family="Arial" font-size="24px" font-style="normal" font-weight="normal" text-decoration="none" x="600" y="780">UNREGISTERED</text><text fill="#eeeeee" stroke="none" font-family="Arial" font-size="24px" font-style="normal" font-weight="normal" text-decoration="none" x="600" y="810">UNREGISTERED</text><text fill="#eeeeee" stroke="none" font-family="Arial" font-size="24px" font-style="normal" font-weight="normal" text-decoration="none" x="800" y="0">UNREGISTERED</text><text fill="#eeeeee" stroke="none" font-family="Arial" font-size="24px" font-style="normal" font-weight="normal" text-decoration="none" x="800" y="30">UNREGISTERED</text><text fill="#eeeeee" stroke="none" font-family="Arial" font-size="24px" font-style="normal" font-weight="normal" text-decoration="none" x="800" y="60">UNREGISTERED</text><text fill="#eeeeee" stroke="none" font-family="Arial" font-size="24px" font-style="normal" font-weight="normal" text-decoration="none" x="800" y="90">UNREGISTERED</text><text fill="#eeeeee" stroke="none" font-family="Arial" font-size="24px" font-style="normal" font-weight="normal" text-decoration="none" x="800" y="120">UNREGISTERED</text><text fill="#eeeeee" stroke="none" font-family="Arial" font-size="24px" font-style="normal" font-weight="normal" text-decoration="none" x="800" y="150">UNREGISTERED</text><text fill="#eeeeee" stroke="none" font-family="Arial" font-size="24px" font-style="normal" font-weight="normal" text-decoration="none" x="800" y="180">UNREGISTERED</text><text fill="#eeeeee" stroke="none" font-family="Arial" font-size="24px" font-style="normal" font-weight="normal" text-decoration="none" x="800" y="210">UNREGISTERED</text><text fill="#eeeeee" stroke="none" font-family="Arial" font-size="24px" font-style="normal" font-weight="normal" text-decoration="none" x="800" y="240">UNREGISTERED</text><text fill="#eeeeee" stroke="none" font-family="Arial" font-size="24px" font-style="normal" font-weight="normal" text-decoration="none" x="800" y="270">UNREGISTERED</text><text fill="#eeeeee" stroke="none" font-family="Arial" font-size="24px" font-style="normal" font-weight="normal" text-decoration="none" x="800" y="300">UNREGISTERED</text><text fill="#eeeeee" stroke="none" font-family="Arial" font-size="24px" font-style="normal" font-weight="normal" text-decoration="none" x="800" y="330">UNREGISTERED</text><text fill="#eeeeee" stroke="none" font-family="Arial" font-size="24px" font-style="normal" font-weight="normal" text-decoration="none" x="800" y="360">UNREGISTERED</text><text fill="#eeeeee" stroke="none" font-family="Arial" font-size="24px" font-style="normal" font-weight="normal" text-decoration="none" x="800" y="390">UNREGISTERED</text><text fill="#eeeeee" stroke="none" font-family="Arial" font-size="24px" font-style="normal" font-weight="normal" text-decoration="none" x="800" y="420">UNREGISTERED</text><text fill="#eeeeee" stroke="none" font-family="Arial" font-size="24px" font-style="normal" font-weight="normal" text-decoration="none" x="800" y="450">UNREGISTERED</text><text fill="#eeeeee" stroke="none" font-family="Arial" font-size="24px" font-style="normal" font-weight="normal" text-decoration="none" x="800" y="480">UNREGISTERED</text><text fill="#eeeeee" stroke="none" font-family="Arial" font-size="24px" font-style="normal" font-weight="normal" text-decoration="none" x="800" y="510">UNREGISTERED</text><text fill="#eeeeee" stroke="none" font-family="Arial" font-size="24px" font-style="normal" font-weight="normal" text-decoration="none" x="800" y="540">UNREGISTERED</text><text fill="#eeeeee" stroke="none" font-family="Arial" font-size="24px" font-style="normal" font-weight="normal" text-decoration="none" x="800" y="570">UNREGISTERED</text><text fill="#eeeeee" stroke="none" font-family="Arial" font-size="24px" font-style="normal" font-weight="normal" text-decoration="none" x="800" y="600">UNREGISTERED</text><text fill="#eeeeee" stroke="none" font-family="Arial" font-size="24px" font-style="normal" font-weight="normal" text-decoration="none" x="800" y="630">UNREGISTERED</text><text fill="#eeeeee" stroke="none" font-family="Arial" font-size="24px" font-style="normal" font-weight="normal" text-decoration="none" x="800" y="660">UNREGISTERED</text><text fill="#eeeeee" stroke="none" font-family="Arial" font-size="24px" font-style="normal" font-weight="normal" text-decoration="none" x="800" y="690">UNREGISTERED</text><text fill="#eeeeee" stroke="none" font-family="Arial" font-size="24px" font-style="normal" font-weight="normal" text-decoration="none" x="800" y="720">UNREGISTERED</text><text fill="#eeeeee" stroke="none" font-family="Arial" font-size="24px" font-style="normal" font-weight="normal" text-decoration="none" x="800" y="750">UNREGISTERED</text><text fill="#eeeeee" stroke="none" font-family="Arial" font-size="24px" font-style="normal" font-weight="normal" text-decoration="none" x="800" y="780">UNREGISTERED</text><text fill="#eeeeee" stroke="none" font-family="Arial" font-size="24px" font-style="normal" font-weight="normal" text-decoration="none" x="800" y="810">UNREGISTERED</text><text fill="#eeeeee" stroke="none" font-family="Arial" font-size="24px" font-style="normal" font-weight="normal" text-decoration="none" x="1000" y="0">UNREGISTERED</text><text fill="#eeeeee" stroke="none" font-family="Arial" font-size="24px" font-style="normal" font-weight="normal" text-decoration="none" x="1000" y="30">UNREGISTERED</text><text fill="#eeeeee" stroke="none" font-family="Arial" font-size="24px" font-style="normal" font-weight="normal" text-decoration="none" x="1000" y="60">UNREGISTERED</text><text fill="#eeeeee" stroke="none" font-family="Arial" font-size="24px" font-style="normal" font-weight="normal" text-decoration="none" x="1000" y="90">UNREGISTERED</text><text fill="#eeeeee" stroke="none" font-family="Arial" font-size="24px" font-style="normal" font-weight="normal" text-decoration="none" x="1000" y="120">UNREGISTERED</text><text fill="#eeeeee" stroke="none" font-family="Arial" font-size="24px" font-style="normal" font-weight="normal" text-decoration="none" x="1000" y="150">UNREGISTERED</text><text fill="#eeeeee" stroke="none" font-family="Arial" font-size="24px" font-style="normal" font-weight="normal" text-decoration="none" x="1000" y="180">UNREGISTERED</text><text fill="#eeeeee" stroke="none" font-family="Arial" font-size="24px" font-style="normal" font-weight="normal" text-decoration="none" x="1000" y="210">UNREGISTERED</text><text fill="#eeeeee" stroke="none" font-family="Arial" font-size="24px" font-style="normal" font-weight="normal" text-decoration="none" x="1000" y="240">UNREGISTERED</text><text fill="#eeeeee" stroke="none" font-family="Arial" font-size="24px" font-style="normal" font-weight="normal" text-decoration="none" x="1000" y="270">UNREGISTERED</text><text fill="#eeeeee" stroke="none" font-family="Arial" font-size="24px" font-style="normal" font-weight="normal" text-decoration="none" x="1000" y="300">UNREGISTERED</text><text fill="#eeeeee" stroke="none" font-family="Arial" font-size="24px" font-style="normal" font-weight="normal" text-decoration="none" x="1000" y="330">UNREGISTERED</text><text fill="#eeeeee" stroke="none" font-family="Arial" font-size="24px" font-style="normal" font-weight="normal" text-decoration="none" x="1000" y="360">UNREGISTERED</text><text fill="#eeeeee" stroke="none" font-family="Arial" font-size="24px" font-style="normal" font-weight="normal" text-decoration="none" x="1000" y="390">UNREGISTERED</text><text fill="#eeeeee" stroke="none" font-family="Arial" font-size="24px" font-style="normal" font-weight="normal" text-decoration="none" x="1000" y="420">UNREGISTERED</text><text fill="#eeeeee" stroke="none" font-family="Arial" font-size="24px" font-style="normal" font-weight="normal" text-decoration="none" x="1000" y="450">UNREGISTERED</text><text fill="#eeeeee" stroke="none" font-family="Arial" font-size="24px" font-style="normal" font-weight="normal" text-decoration="none" x="1000" y="480">UNREGISTERED</text><text fill="#eeeeee" stroke="none" font-family="Arial" font-size="24px" font-style="normal" font-weight="normal" text-decoration="none" x="1000" y="510">UNREGISTERED</text><text fill="#eeeeee" stroke="none" font-family="Arial" font-size="24px" font-style="normal" font-weight="normal" text-decoration="none" x="1000" y="540">UNREGISTERED</text><text fill="#eeeeee" stroke="none" font-family="Arial" font-size="24px" font-style="normal" font-weight="normal" text-decoration="none" x="1000" y="570">UNREGISTERED</text><text fill="#eeeeee" stroke="none" font-family="Arial" font-size="24px" font-style="normal" font-weight="normal" text-decoration="none" x="1000" y="600">UNREGISTERED</text><text fill="#eeeeee" stroke="none" font-family="Arial" font-size="24px" font-style="normal" font-weight="normal" text-decoration="none" x="1000" y="630">UNREGISTERED</text><text fill="#eeeeee" stroke="none" font-family="Arial" font-size="24px" font-style="normal" font-weight="normal" text-decoration="none" x="1000" y="660">UNREGISTERED</text><text fill="#eeeeee" stroke="none" font-family="Arial" font-size="24px" font-style="normal" font-weight="normal" text-decoration="none" x="1000" y="690">UNREGISTERED</text><text fill="#eeeeee" stroke="none" font-family="Arial" font-size="24px" font-style="normal" font-weight="normal" text-decoration="none" x="1000" y="720">UNREGISTERED</text><text fill="#eeeeee" stroke="none" font-family="Arial" font-size="24px" font-style="normal" font-weight="normal" text-decoration="none" x="1000" y="750">UNREGISTERED</text><text fill="#eeeeee" stroke="none" font-family="Arial" font-size="24px" font-style="normal" font-weight="normal" text-decoration="none" x="1000" y="780">UNREGISTERED</text><text fill="#eeeeee" stroke="none" font-family="Arial" font-size="24px" font-style="normal" font-weight="normal" text-decoration="none" x="1000" y="810">UNREGISTERED</text><g transform="translate(-5,-6) scale(1,1)"><rect fill="#ffffff" stroke="none" x="15" y="16" width="345" height="21"/></g><g transform="translate(-5,-6) scale(1,1)"><path fill="none" stroke="#000000" d="M 15 16 L 360 16 L 360 37 L 15 37 L 15 16 Z Z" stroke-miterlimit="10" stroke-width="2"/></g><g transform="translate(-5,-6) scale(1,1)"><path fill="none" stroke="#000000" d="M 15 824 L 15 16 L 360 16 L 360 824" stroke-miterlimit="10" stroke-width="2"/></g><g transform="translate(-5,-6) scale(1,1)"><g><path fill="none" stroke="none"/><text fill="#000000" stroke="none" font-family="Arial" font-size="13px" font-style="normal" font-weight="normal" text-decoration="none" x="158.602294921875" y="30">Utilisateur</text></g></g><g transform="translate(-5,-6) scale(1,1)"><rect fill="#ffffff" stroke="none" x="360" y="16" width="471" height="21"/></g><g transform="translate(-5,-6) scale(1,1)"><path fill="none" stroke="#000000" d="M 360 16 L 831 16 L 831 37 L 360 37 L 360 16 Z Z" stroke-miterlimit="10" stroke-width="2"/></g><g transform="translate(-5,-6) scale(1,1)"><path fill="none" stroke="#000000" d="M 360 824 L 360 16 L 831 16 L 831 824" stroke-miterlimit="10" stroke-width="2"/></g><g transform="translate(-5,-6) scale(1,1)"><g><path fill="none" stroke="none"/><text fill="#000000" stroke="none" font-family="Arial" font-size="13px" font-style="normal" font-weight="normal" text-decoration="none" x="570.207763671875" y="30">Interface</text></g></g><g transform="translate(-5,-6) scale(1,1)"><rect fill="#ffffff" stroke="none" x="832" y="16" width="286" height="21"/></g><g transform="translate(-5,-6) scale(1,1)"><path fill="none" stroke="#000000" d="M 832 16 L 1118 16 L 1118 37 L 832 37 L 832 16 Z Z" stroke-miterlimit="10" stroke-width="2"/></g><g transform="translate(-5,-6) scale(1,1)"><path fill="none" stroke="#000000" d="M 832 824 L 832 16 L 1118 16 L 1118 824" stroke-miterlimit="10" stroke-width="2"/></g><g transform="translate(-5,-6) scale(1,1)"><g><path fill="none" stroke="none"/><text fill="#000000" stroke="none" font-family="Arial" font-size="13px" font-style="normal" font-weight="normal" text-decoration="none" x="961.2763671875" y="30">BDD</text></g></g><g transform="translate(-5,-6) scale(1,1)"><path fill="#C0C0C0" stroke="none" d="M 593 88.5 C 593 83.2532944 597.2532944 79 602.5 79 C 607.7467056 79 612 83.2532944 612 88.5 C 612 93.7467056 607.7467056 98 602.5 98 C 597.2532944 98 593 93.7467056 593 88.5 Z" opacity="0.2"/></g><g transform="translate(-5,-6) scale(1,1)"><path fill="#000000" stroke="none" d="M 586 81.5 C 586 76.2532944 590.2532944 72 595.5 72 C 600.7467056 72 605 76.2532944 605 81.5 C 605 86.7467056 600.7467056 91 595.5 91 C 590.2532944 91 586 86.7467056 586 81.5 Z"/></g><g transform="translate(-5,-6) scale(1,1)"><path fill="#C0C0C0" stroke="none" d="M 114 119 L 275.296875 119 L 275.296875 159 L 114 159 L 124.25 139.5" opacity="0.2"/></g><g transform="translate(-5,-6) scale(1,1)"><path fill="#ffffff" stroke="none" d="M 107 112 L 268.296875 112 L 268.296875 152 L 107 152 L 117.25 132.5"/></g><g transform="translate(-5,-6) scale(1,1)"><path fill="none" stroke="#000000" d="M 107 112 L 268.296875 112 L 268.296875 152 L 107 152 L 117.25 132.5 L 107 112" stroke-miterlimit="10"/></g><g transform="translate(-5,-6) scale(1,1)"><g><path fill="none" stroke="none"/><text fill="#000000" stroke="none" font-family="Arial" font-size="13px" font-style="normal" font-weight="bold" text-decoration="none" x="119.382568359375" y="130">Sélectionner un triage</text></g></g><g transform="translate(-5,-6) scale(1,1)"><path fill="#ffffff" stroke="none" d="M 103 184 L 260 184 L 270 194 L 270 222 L 103 222 L 103 184"/></g><g transform="translate(-5,-6) scale(1,1)"><path fill="none" stroke="#000000" d="M 103 184 L 260 184 L 270 194 L 270 222 L 103 222 L 103 184 L 103 184" stroke-miterlimit="10"/></g><g transform="translate(-5,-6) scale(1,1)"><path fill="none" stroke="#000000" d="M 260 184 L 260 194 L 270 194 L 260 184" stroke-miterlimit="10"/></g><g transform="translate(-5,-6) scale(1,1)"><g><path fill="none" stroke="none"/><text fill="#000000" stroke="none" font-family="Arial" font-size="13px" font-style="normal" font-weight="normal" text-decoration="none" x="108" y="199">- Depuis la liste des notes</text></g></g><g transform="translate(-5,-6) scale(1,1)"><g><path fill="none" stroke="none"/><text fill="#000000" stroke="none" font-family="Arial" font-size="13px" font-style="normal" font-weight="normal" text-decoration="none" x="108" y="214">- En fonction du status</text></g></g><g transform="translate(-5,-6) scale(1,1)"><path fill="none" stroke="#000000" d="M 187 183 L 187 153" stroke-miterlimit="10" stroke-dasharray="3"/></g><g transform="translate(-5,-6) scale(1,1)"><path fill="#C0C0C0" stroke="none" d="M 445 191 L 760.4853515625 191 Q 770.4853515625 191 770.4853515625 201 L 770.4853515625 221 Q 770.4853515625 231 760.4853515625 231 L 445 231 Q 435 231 435 221 L 435 201 Q 435 191 445 191 Z" opacity="0.2"/></g><g transform="translate(-5,-6) scale(1,1)"><path fill="#ffffff" stroke="none" d="M 438 184 L 753.4853515625 184 Q 763.4853515625 184 763.4853515625 194 L 763.4853515625 214 Q 763.4853515625 224 753.4853515625 224 L 438 224 Q 428 224 428 214 L 428 194 Q 428 184 438 184 Z"/></g><g transform="translate(-5,-6) scale(1,1)"><path fill="none" stroke="#000000" d="M 438 184 L 753.4853515625 184 Q 763.4853515625 184 763.4853515625 194 L 763.4853515625 214 Q 763.4853515625 224 753.4853515625 224 L 438 224 Q 428 224 428 214 L 428 194 Q 428 184 438 184 Z" stroke-miterlimit="10"/></g><g transform="translate(-5,-6) scale(1,1)"><g><path fill="none" stroke="none"/><text fill="#000000" stroke="none" font-family="Arial" font-size="13px" font-style="normal" font-weight="bold" text-decoration="none" x="432.5" y="202">Requête de sélection des notes en fonction du statut</text></g></g><g transform="translate(-5,-6) scale(1,1)"><path fill="#C0C0C0" stroke="none" d="M 931 287 L 1039.9453125 287 Q 1049.9453125 287 1049.9453125 297 L 1049.9453125 317 Q 1049.9453125 327 1039.9453125 327 L 931 327 Q 921 327 921 317 L 921 297 Q 921 287 931 287 Z" opacity="0.2"/></g><g transform="translate(-5,-6) scale(1,1)"><path fill="#ffffff" stroke="none" d="M 924 280 L 1032.9453125 280 Q 1042.9453125 280 1042.9453125 290 L 1042.9453125 310 Q 1042.9453125 320 1032.9453125 320 L 924 320 Q 914 320 914 310 L 914 290 Q 914 280 924 280 Z"/></g><g transform="translate(-5,-6) scale(1,1)"><path fill="none" stroke="#000000" d="M 924 280 L 1032.9453125 280 Q 1042.9453125 280 1042.9453125 290 L 1042.9453125 310 Q 1042.9453125 320 1032.9453125 320 L 924 320 Q 914 320 914 310 L 914 290 Q 914 280 924 280 Z" stroke-miterlimit="10"/></g><g transform="translate(-5,-6) scale(1,1)"><g><path fill="none" stroke="none"/><text fill="#000000" stroke="none" font-family="Arial" font-size="13px" font-style="normal" font-weight="bold" text-decoration="none" x="918.5" y="298">Exécuter la requête</text></g></g><g transform="translate(-5,-6) scale(1,1)"><path fill="#C0C0C0" stroke="none" d="M 542 391 L 663.20263671875 391 Q 673.20263671875 391 673.20263671875 401 L 673.20263671875 421 Q 673.20263671875 431 663.20263671875 431 L 542 431 Q 532 431 532 421 L 532 401 Q 532 391 542 391 Z" opacity="0.2"/></g><g transform="translate(-5,-6) scale(1,1)"><path fill="#ffffff" stroke="none" d="M 535 384 L 656.20263671875 384 Q 666.20263671875 384 666.20263671875 394 L 666.20263671875 414 Q 666.20263671875 424 656.20263671875 424 L 535 424 Q 525 424 525 414 L 525 394 Q 525 384 535 384 Z"/></g><g transform="translate(-5,-6) scale(1,1)"><path fill="none" stroke="#000000" d="M 535 384 L 656.20263671875 384 Q 666.20263671875 384 666.20263671875 394 L 666.20263671875 414 Q 666.20263671875 424 656.20263671875 424 L 535 424 Q 525 424 525 414 L 525 394 Q 525 384 535 384 Z" stroke-miterlimit="10"/></g><g transform="translate(-5,-6) scale(1,1)"><g><path fill="none" stroke="none"/><text fill="#000000" stroke="none" font-family="Arial" font-size="13px" font-style="normal" font-weight="bold" text-decoration="none" x="529.5" y="402">Vérifier le retour BDD</text></g></g><g transform="translate(-5,-6) scale(1,1)"><path fill="#C0C0C0" stroke="none" d="M 591 496.5 L 602.5 487 L 613 496.5 L 602.5 505 L 591 496.5" opacity="0.2"/></g><g transform="translate(-5,-6) scale(1,1)"><path fill="#ffffff" stroke="none" d="M 584 489 L 595 480 L 606 489 L 595 498 L 584 489"/></g><g transform="translate(-5,-6) scale(1,1)"><path fill="none" stroke="#000000" d="M 584 489 L 595 480 L 606 489 L 595 498 L 584 489 L 584 489" stroke-miterlimit="10"/></g><g transform="translate(-5,-6) scale(1,1)"><path fill="#C0C0C0" stroke="none" d="M 467 631 L 738.45166015625 631 Q 748.45166015625 631 748.45166015625 641 L 748.45166015625 661 Q 748.45166015625 671 738.45166015625 671 L 467 671 Q 457 671 457 661 L 457 641 Q 457 631 467 631 Z" opacity="0.2"/></g><g transform="translate(-5,-6) scale(1,1)"><path fill="#ffffff" stroke="none" d="M 460 624 L 731.45166015625 624 Q 741.45166015625 624 741.45166015625 634 L 741.45166015625 654 Q 741.45166015625 664 731.45166015625 664 L 460 664 Q 450 664 450 654 L 450 634 Q 450 624 460 624 Z"/></g><g transform="translate(-5,-6) scale(1,1)"><path fill="none" stroke="#000000" d="M 460 624 L 731.45166015625 624 Q 741.45166015625 624 741.45166015625 634 L 741.45166015625 654 Q 741.45166015625 664 731.45166015625 664 L 460 664 Q 450 664 450 654 L 450 634 Q 450 624 460 624 Z" stroke-miterlimit="10"/></g><g transform="translate(-5,-6) scale(1,1)"><g><path fill="none" stroke="none"/><text fill="#000000" stroke="none" font-family="Arial" font-size="13px" font-style="normal" font-weight="bold" text-decoration="none" x="454.5" y="642">afficher les notes qui correspondent au triage</text></g></g><g transform="translate(-5,-6) scale(1,1)"><path fill="#C0C0C0" stroke="none" d="M 590 779.5 C 590 772.59644 595.59644 767 602.5 767 C 609.40356 767 615 772.59644 615 779.5 C 615 786.40356 609.40356 792 602.5 792 C 595.59644 792 590 786.40356 590 779.5 Z" opacity="0.2"/></g><g transform="translate(-5,-6) scale(1,1)"><path fill="none" stroke="#000000" d="M 583 772.5 C 583 765.59644 588.59644 760 595.5 760 C 602.40356 760 608 765.59644 608 772.5 C 608 779.40356 602.40356 785 595.5 785 C 588.59644 785 583 779.40356 583 772.5 Z" stroke-miterlimit="10"/></g><g transform="translate(-5,-6) scale(1,1)"><path fill="#000000" stroke="none" d="M 588 772.5 C 588 768.357864 591.357864 765 595.5 765 C 599.642136 765 603 768.357864 603 772.5 C 603 776.642136 599.642136 780 595.5 780 C 591.357864 780 588 776.642136 588 772.5 Z"/></g><g transform="translate(-5,-6) scale(1,1)"><path fill="none" stroke="#000000" d="M 585 81 L 216 80 L 199 111" stroke-miterlimit="10"/></g><g transform="translate(-5,-6) scale(1,1)"><path fill="none" stroke="#000000" d="M 200.1955880856406 100.06516716499634 L 199 111 L 207.5775028916347 104.11331399408989" stroke-miterlimit="10"/></g><g transform="translate(-5,-6) scale(1,1)"><path fill="none" stroke="#000000" d="M 269 131 L 560 128 L 585 183" stroke-miterlimit="10"/></g><g transform="translate(-5,-6) scale(1,1)"><path fill="none" stroke="#000000" d="M 576.962451370579 175.49015232979445 L 585 183 L 584.6268590733001 172.0063306467394" stroke-miterlimit="10"/></g><g transform="translate(-5,-6) scale(1,1)"><path fill="none" stroke="#000000" d="M 764 206 L 920 208 L 965 279" stroke-miterlimit="10"/></g><g transform="translate(-5,-6) scale(1,1)"><path fill="none" stroke="#000000" d="M 956.0040375606656 272.6697030251272 L 965 279 L 963.1150898737044 268.1626980379899" stroke-miterlimit="10"/></g><g transform="translate(-5,-6) scale(1,1)"><path fill="none" stroke="#000000" d="M 913 299 L 648 296 L 605 383" stroke-miterlimit="10"/></g><g transform="translate(-5,-6) scale(1,1)"><path fill="none" stroke="#000000" d="M 605.7292077625171 372.02419679298663 L 605 383 L 613.276692630418 375.75456287712154" stroke-miterlimit="10"/></g><g transform="translate(-5,-6) scale(1,1)"><path fill="none" stroke="#000000" d="M 595 425 L 595 479" stroke-miterlimit="10"/></g><g transform="translate(-5,-6) scale(1,1)"><path fill="none" stroke="#000000" d="M 590.790482243984 468.83732514237585 L 595 479 L 599.209517756016 468.83732514237585" stroke-miterlimit="10"/></g><g transform="translate(-5,-6) scale(1,1)"><path fill="none" stroke="#000000" d="M 583 489 L 528 488 L 495 527" stroke-miterlimit="10"/></g><g transform="translate(-5,-6) scale(1,1)"><path fill="none" stroke="#000000" d="M 498.3510128538653 516.5228480562116 L 495 527 L 504.77798909978605 521.9610587258368" stroke-miterlimit="10"/></g><g transform="translate(-5,-6) scale(1,1)"><g><path fill="none" stroke="none"/><text fill="#000000" stroke="none" font-family="Arial" font-size="13px" font-style="normal" font-weight="normal" text-decoration="none" x="444.5" y="501">CATCH</text></g></g><g transform="translate(-5,-6) scale(1,1)"><path fill="none" stroke="#000000" d="M 595 499 L 595 623" stroke-miterlimit="10"/></g><g transform="translate(-5,-6) scale(1,1)"><path fill="none" stroke="#000000" d="M 590.790482243984 612.8373251423759 L 595 623 L 599.209517756016 612.8373251423759" stroke-miterlimit="10"/></g><g transform="translate(-5,-6) scale(1,1)"><g><path fill="none" stroke="none"/><text fill="#000000" stroke="none" font-family="Arial" font-size="13px" font-style="normal" font-weight="normal" text-decoration="none" x="596.5" y="565">TRY</text></g></g><g transform="translate(-5,-6) scale(1,1)"><path fill="none" stroke="#000000" d="M 595 665 L 595 759" stroke-miterlimit="10"/></g><g transform="translate(-5,-6) scale(1,1)"><path fill="none" stroke="#000000" d="M 590.790482243984 748.8373251423759 L 595 759 L 599.209517756016 748.8373251423759" stroke-miterlimit="10"/></g><g transform="translate(-5,-6) scale(1,1)"><path fill="#C0C0C0" stroke="none" d="M 437 535 L 437 575 L 521.00537109375 575 L 531.25537109375 555.5 L 521.00537109375 535" opacity="0.2"/></g><g transform="translate(-5,-6) scale(1,1)"><path fill="#ffffff" stroke="none" d="M 430 528 L 430 568 L 514.00537109375 568 L 524.25537109375 548.5 L 514.00537109375 528"/></g><g transform="translate(-5,-6) scale(1,1)"><path fill="none" stroke="#000000" d="M 430 528 L 430 568 L 514.00537109375 568 L 524.25537109375 548.5 L 514.00537109375 528 L 430 528" stroke-miterlimit="10"/></g><g transform="translate(-5,-6) scale(1,1)"><g><path fill="none" stroke="none"/><text fill="#000000" stroke="none" font-family="Arial" font-size="13px" font-style="normal" font-weight="bold" text-decoration="none" x="434.5" y="546">Message SQL</text></g></g></g></svg>